<svg width="512" height="512" viewBox="0 0 512 512" fill="none" xmlns="http://www.w3.org/2000/svg">
<path d="M411.826 272.696H478.609V239.304H411.826V205.913H0V406.261H33.391V439.652H66.783V473.043H100.174V506.435H311.652V473.043H345.043V439.652H378.435V406.261H411.826H478.609V372.87H411.826V272.696Z" fill="#F25477"/>
<path d="M512 272.696H478.609V372.87H512V272.696Z" fill="#F25477"/>
<path d="M411.826 272.696H478.609V239.304H411.826V205.913H378.435H33.391H0V239.304V406.261H33.391V239.304H378.435V272.696V372.87V406.261H411.826H478.609V372.87H411.826V272.696Z" fill="#3F3D56"/>
<path d="M512 272.696H478.609V372.87H512V272.696Z" fill="#3F3D56"/>
<path d="M378.434 406.261H345.043V439.652H378.434V406.261Z" fill="#3F3D56"/>
<path d="M345.043 439.652H311.652V473.043H345.043V439.652Z" fill="#3F3D56"/>
<path d="M66.782 406.261H33.391V439.652H66.782V406.261Z" fill="#3F3D56"/>
<path d="M100.174 439.652H66.783V473.043H100.174V439.652Z" fill="#3F3D56"/>
<path d="M311.652 473.043H100.174V506.434H311.652V473.043Z" fill="#3F3D56"/>
<path d="M333.913 72.348H300.522V105.739H333.913V72.348Z" fill="#3F3D56"/>
<path d="M333.913 139.13H300.522V172.521H333.913V139.13Z" fill="#3F3D56"/>
<path d="M300.521 105.739H267.13V139.13H300.521V105.739Z" fill="#3F3D56"/>
<path d="M200.348 38.957H166.957V72.348H200.348V38.957Z" fill="#3F3D56"/>
<path d="M233.739 72.348H200.348V105.739H233.739V72.348Z" fill="#3F3D56"/>
<path d="M233.739 5.56494H200.348V38.9559H233.739V5.56494Z" fill="#3F3D56"/>
<path d="M233.739 139.13H200.348V172.521H233.739V139.13Z" fill="#3F3D56"/>
<path d="M200.348 105.739H166.957V139.13H200.348V105.739Z" fill="#3F3D56"/>
<path d="M133.565 72.348H100.174V105.739H133.565V72.348Z" fill="#3F3D56"/>
<path d="M133.565 139.13H100.174V172.521H133.565V139.13Z" fill="#3F3D56"/>
<path d="M100.174 105.739H66.783V139.13H100.174V105.739Z" fill="#3F3D56"/>
<path d="M100.174 372.87H66.783V406.261H100.174V372.87Z" fill="#FFEAEF"/>
<path d="M100.174 272.696H66.783V339.479H100.174V272.696Z" fill="#FFEAEF"/>
</svg>
