<svg width="512" height="512" viewBox="0 0 512 512" fill="none" xmlns="http://www.w3.org/2000/svg">
<path d="M411.826 272.696H478.609V239.304H411.826V205.913H0V406.261H33.391V439.652H66.783V473.043H100.174V506.435H311.652V473.043H345.043V439.652H378.435V406.261H411.826H478.609V372.87H411.826V272.696Z" fill="#F25477"/>
<path d="M512 272.696H478.609V372.87H512V272.696Z" fill="#F25477"/>
<path d="M411.826 272.696H478.609V239.304H411.826V205.913H378.435H33.391H0V239.304V406.261H33.391V239.304H378.435V272.696V372.87V406.261H411.826H478.609V372.87H411.826V272.696Z" fill="#3F3D56"/>
<path d="M512 272.696H478.609V372.87H512V272.696Z" fill="#3F3D56"/>
<path d="M378.434 406.261H345.043V439.652H378.434V406.261Z" fill="#3F3D56"/>
<path d="M345.043 439.652H311.652V473.043H345.043V439.652Z" fill="#3F3D56"/>
<path d="M66.782 406.261H33.391V439.652H66.782V406.261Z" fill="#3F3D56"/>
<path d="M100.174 439.652H66.783V473.043H100.174V439.652Z" fill="#3F3D56"/>
<path d="M311.652 473.043H100.174V506.434H311.652V473.043Z" fill="#3F3D56"/>
<path d="M300.391 73H267V106.391H300.391V73Z" fill="#3F3D56"/>
<path d="M301.391 139H268V172.391H301.391V139Z" fill="#3F3D56"/>
<path d="M334.391 106H301V139.391H334.391V106Z" fill="#3F3D56"/>
<path d="M234.391 39H201V72.391H234.391V39Z" fill="#3F3D56"/>
<path d="M200.391 72H167V105.391H200.391V72Z" fill="#3F3D56"/>
<path d="M201.391 6H168V39.391H201.391V6Z" fill="#3F3D56"/>
<path d="M200.391 139H167V172.391H200.391V139Z" fill="#3F3D56"/>
<path d="M233.391 105H200V138.391H233.391V105Z" fill="#3F3D56"/>
<path d="M99.391 72H66V105.391H99.391V72Z" fill="#3F3D56"/>
<path d="M100.391 139H67V172.391H100.391V139Z" fill="#3F3D56"/>
<path d="M133.391 106H100V139.391H133.391V106Z" fill="#3F3D56"/>
<path d="M100.174 372.87H66.783V406.261H100.174V372.87Z" fill="#FFEAEF"/>
<path d="M100.174 272.696H66.783V339.479H100.174V272.696Z" fill="#FFEAEF"/>
</svg>
