<svg width="999" height="618" viewBox="0 0 999 618" fill="none" xmlns="http://www.w3.org/2000/svg">
<path d="M347.007 269.845C348.159 275.534 349.539 281.164 351.15 286.737C351.324 287.384 351.519 288.021 351.715 288.668L360.181 305.843C362.088 305.845 377.846 289.383 379.195 290.65C380.543 291.918 357.261 298.131 357.263 299.923L381.304 355.423C381.983 356.611 382.671 357.789 383.36 358.968C386.916 365.052 390.616 371.069 394.398 377.008C456.072 473.544 542.089 554.327 644.856 612.225L638.772 599.322C641.002 599.177 643.242 599.032 645.473 598.887C694.035 595.768 742.762 592.31 790.183 582.054C839.794 571.324 888.325 552.713 927.206 521.856C966.097 490.99 994.607 446.912 998.565 399.221C999.884 382.831 998.12 366.351 993.353 350.536C984.237 320.095 964.319 292.705 935.582 276.499C890.443 251.051 831.561 256.237 783.976 277.407C736.4 298.568 697.673 333.596 659.861 368.017C698.038 306.499 751.192 254.363 814.963 215.887C836.094 203.177 858.52 191.858 876.485 175.392C894.441 158.935 907.689 135.862 904.513 112.48C900.905 85.9601 877.791 65.8332 854.635 50.3131C845.385 44.1128 835.837 38.2311 825.991 32.8228C798.21 17.5248 768.158 5.98366 736.421 1.70524C693.429 -4.09911 646.994 4.70883 614.033 31.2872C576.9 61.2361 561.668 109.535 563.117 155.738C540.239 124.485 504.956 100.563 465.109 99.5487C423.741 98.5056 384.418 123.065 363.699 156.733C342.989 190.39 339.268 231.648 347.007 269.845Z" fill="#D4E0EE"/>
<path d="M608.738 399.642C584.509 397.636 562.127 395.294 538.648 389.051C515.889 382.999 493.99 372.869 477.789 356.328C460.363 338.537 450.956 315.432 444.32 292.431C440.619 279.607 437.579 266.604 434.71 253.597C431.597 239.484 428.832 225.308 426.413 211.07C421.598 182.729 418.161 154.221 416.101 125.546C415.852 122.066 415.624 118.584 415.417 115.101C415.288 112.952 418.845 112.959 418.973 115.101C420.665 143.366 423.709 171.521 428.105 199.566C432.443 227.119 437.993 254.554 445.035 281.614C451 304.538 458.724 327.82 474.024 346.903C488.371 364.798 509.093 376.493 531.468 383.485C554.236 390.599 578.243 393.44 602.035 395.552C604.953 395.811 605.818 396.058 608.738 396.3C611 396.487 611.021 399.83 608.738 399.642L608.738 399.642Z" fill="white"/>
<path d="M991.301 353.002C960.731 354.595 930.472 359.605 901.164 367.927C871.843 376.232 843.667 387.756 817.219 402.262C791.664 416.29 767.94 433.075 746.529 452.276C725.75 470.922 707.231 491.672 691.31 514.146C675.316 536.677 662.062 560.822 651.796 586.129C650.544 589.226 649.338 592.339 648.178 595.468C647.429 597.486 643.992 596.618 644.749 594.58C654.354 568.739 667.016 543.993 682.497 520.807C697.976 497.619 716.141 476.114 736.661 456.687C757.51 436.958 780.714 419.558 805.81 404.832C858.506 373.987 918.235 355.328 980.094 350.385C983.826 350.091 987.561 349.85 991.3 349.66C993.587 349.542 993.58 352.884 991.3 353.002L991.301 353.002Z" fill="white"/>
<path d="M825.03 36.7399C805.484 42.5812 786.957 51.0886 770.042 61.9895C752.758 73.2044 736.995 86.359 723.102 101.162C708.461 116.734 695.445 133.59 684.232 151.499C672.338 170.409 662.006 190.148 653.327 210.543C644.389 231.482 636.872 252.931 630.82 274.763C624.669 296.853 619.864 319.256 616.428 341.861C613.011 364.226 610.943 386.755 610.234 409.339C609.519 430.935 610.198 452.552 612.268 474.07C614.161 494.146 617.618 514.064 622.611 533.665C627.045 551.368 633.294 568.625 641.27 585.196C643.118 588.956 645.078 592.665 647.151 596.322C648.227 598.219 645.158 599.91 644.08 598.009C635.266 582.181 628.228 565.535 623.079 548.339C617.302 529.196 613.115 509.661 610.555 489.91C607.717 468.481 606.335 446.904 606.417 425.309C606.468 402.623 607.905 379.958 610.721 357.426C613.538 334.614 617.721 311.968 623.25 289.598C628.765 267.191 635.761 245.128 644.197 223.539C652.327 202.639 662.063 182.322 673.325 162.748C684.053 144.069 696.554 126.338 710.676 109.773C724.088 94.001 739.4 79.7423 756.306 67.2826C772.607 55.3042 790.621 45.5402 809.817 38.2777C814.508 36.5232 819.264 34.9365 824.084 33.5176C826.272 32.8707 827.209 36.0957 825.03 36.7399H825.03Z" fill="white"/>
<path d="M614.095 618C473.608 618 359.721 613.676 359.721 608.342C359.721 603.008 473.608 598.684 614.095 598.684C754.581 598.684 868.469 603.008 868.469 608.342C868.469 613.676 754.581 618 614.095 618Z" fill="#D4E0EE"/>
<path d="M389.353 305.849C389.479 306.37 389.561 306.9 389.599 307.433L433.749 331.367L444.48 325.562L455.921 339.635L432.963 355.011L382.594 317.671C380.54 318.386 378.303 318.495 376.181 317.986C374.058 317.476 372.151 316.372 370.713 314.819C369.275 313.266 368.374 311.339 368.13 309.294C367.887 307.248 368.311 305.181 369.348 303.368C370.384 301.555 371.984 300.081 373.933 299.142C375.883 298.204 378.091 297.846 380.262 298.115C382.434 298.385 384.467 299.269 386.091 300.65C387.714 302.032 388.852 303.845 389.353 305.849V305.849Z" fill="#FFB8B8"/>
<path d="M489.902 320.533L455.139 343.815L439.591 325.497L473.384 300.017C474.838 298.921 476.515 298.115 478.312 297.649C480.108 297.183 481.988 297.067 483.834 297.307C485.68 297.548 487.455 298.14 489.049 299.048C490.644 299.955 492.024 301.159 493.106 302.585V302.585C495.214 305.364 496.061 308.817 495.46 312.183C494.859 315.548 492.86 318.552 489.902 320.533Z" fill="#F09BB9"/>
<path d="M561.663 586.188L549.473 589.189L531.354 546.44L549.343 542.01L561.663 586.188Z" fill="#FFB8B8"/>
<path d="M528.932 605.613L567.24 596.181L563.362 582.273L539.855 588.061C535.93 589.027 532.573 591.419 530.525 594.711C528.477 598.003 527.904 601.924 528.932 605.613V605.613V605.613Z" fill="#3F3D56"/>
<path d="M453.312 594.344L440.908 592.261L443.551 546.312L461.858 549.385L453.312 594.344Z" fill="#FFB8B8"/>
<path d="M414.928 599.069L453.912 605.613L456.603 591.46L432.681 587.444C430.703 587.112 428.675 587.149 426.712 587.554C424.749 587.958 422.891 588.722 421.242 589.802C419.594 590.881 418.188 592.255 417.104 593.846C416.021 595.436 415.282 597.211 414.928 599.069V599.069V599.069Z" fill="#3F3D56"/>
<path d="M460.442 383.315L436.827 582.067L456.331 589.026L492.303 455.749L542.385 577.609L563.734 578.724C563.734 578.724 534.442 389.11 512.734 384.8L460.442 383.315Z" fill="#3F3D56"/>
<path d="M480.278 281.788C466.336 281.788 455.035 271.168 455.035 258.067C455.035 244.967 466.336 234.347 480.278 234.347C494.219 234.347 505.521 244.967 505.521 258.067C505.521 271.168 494.219 281.788 480.278 281.788Z" fill="#FFB8B8"/>
<path d="M469.444 291.739L496.723 288.396C496.723 288.396 514.513 308.457 513.327 343.006C512.141 377.556 516.292 388.144 516.292 388.144L459.415 389.11C467.637 378.486 433.246 317.471 469.444 291.739Z" fill="#F09BB9"/>
<path d="M454.79 393.938C455.358 393.942 455.926 393.988 456.487 394.076L491.385 359.167L487.827 348.022L505.025 340.777L515.699 365.296L465.49 402.826C465.76 404.869 465.362 406.94 464.348 408.765C463.335 410.59 461.754 412.082 459.817 413.042C457.879 414.002 455.676 414.385 453.501 414.14C451.326 413.895 449.282 413.033 447.641 411.67C446 410.307 444.839 408.507 444.313 406.508C443.788 404.51 443.922 402.409 444.698 400.484C445.474 398.559 446.855 396.902 448.657 395.733C450.46 394.563 452.599 393.938 454.79 393.938V393.938Z" fill="#FFB8B8"/>
<path d="M493.012 305.321L509.176 342.449L486.641 352.48L467.979 315.736C467.176 314.155 466.725 312.437 466.653 310.687C466.582 308.937 466.891 307.191 467.563 305.557C468.235 303.923 469.254 302.435 470.559 301.185C471.864 299.934 473.427 298.947 475.152 298.283V298.283C476.817 297.644 478.599 297.318 480.397 297.325C482.196 297.333 483.975 297.673 485.633 298.327C487.292 298.98 488.797 299.934 490.063 301.134C491.329 302.334 492.331 303.757 493.012 305.321V305.321Z" fill="#F09BB9"/>
<path d="M515.481 287.295C507.334 287.295 500.729 280.758 500.729 272.693C500.729 264.629 507.334 258.092 515.481 258.092C523.628 258.092 530.232 264.629 530.232 272.693C530.232 280.758 523.628 287.295 515.481 287.295Z" fill="#501201"/>
<path d="M503.342 281.053C503.344 278.87 503.836 276.716 504.783 274.744C505.73 272.773 507.108 271.033 508.818 269.652C510.528 268.27 512.527 267.28 514.671 266.754C516.816 266.228 519.051 266.178 521.217 266.609C519.306 265.717 517.225 265.236 515.112 265.198C512.998 265.16 510.901 265.565 508.958 266.388C507.015 267.21 505.271 268.43 503.842 269.968C502.412 271.506 501.33 273.326 500.666 275.308C500.002 277.29 499.771 279.389 499.99 281.465C500.208 283.542 500.871 285.548 501.933 287.353C502.996 289.158 504.434 290.719 506.153 291.934C507.873 293.148 509.833 293.988 511.906 294.399C509.343 293.206 507.177 291.318 505.66 288.955C504.144 286.591 503.34 283.851 503.342 281.053V281.053Z" fill="#501201"/>
<path d="M497.711 225.483L477.784 221.785L462.459 231.466C458.691 233.846 455.68 237.265 453.782 241.318C451.884 245.37 451.179 249.887 451.751 254.331L474.629 259.276H481.47L474.629 248.486L486.388 263.617L492.944 279.402L511.793 271.904L516.5 253L511.793 235.992L497.711 225.483Z" fill="#501201"/>
<path d="M35.1232 148.747C34.5771 148.746 34.0359 148.663 33.5272 148.502C32.7045 148.245 31.9975 147.79 31.5 147.199C31.0025 146.607 30.7381 145.907 30.7418 145.19V108.068C30.7401 106.811 30.1255 105.607 29.033 104.718C27.9405 103.83 26.4593 103.33 24.9142 103.328H15.5668C11.7048 103.325 8.00216 102.076 5.2713 99.8547C2.54043 97.6339 1.00433 94.6227 1 91.4819V16.8464C1.00433 13.7056 2.54043 10.6945 5.2713 8.47362C8.00216 6.25275 11.7048 5.00352 15.5668 5H345.277C349.139 5.00352 352.841 6.25275 355.572 8.47362C358.303 10.6945 359.839 13.7056 359.843 16.8464V91.4819C359.839 94.6227 358.303 97.6338 355.572 99.8547C352.841 102.076 349.139 103.325 345.277 103.328H90.7875C89.9797 103.329 89.1809 103.466 88.4414 103.731C87.702 103.995 87.0381 104.381 86.4915 104.865L38.3326 147.591C37.926 147.955 37.4305 148.245 36.8779 148.444C36.3252 148.643 35.7276 148.746 35.1232 148.747V148.747ZM15.5668 6.57854C12.2194 6.58162 9.01018 7.6644 6.64321 9.58933C4.27624 11.5143 2.94482 14.1241 2.94104 16.8464V91.4819C2.94482 94.2042 4.27624 96.8141 6.64321 98.739C9.01018 100.664 12.2194 101.747 15.5668 101.75H24.9142C26.9739 101.752 28.9486 102.418 30.405 103.602C31.8614 104.787 32.6806 106.393 32.6828 108.068V145.19C32.6829 145.588 32.8307 145.976 33.107 146.305C33.3833 146.633 33.7751 146.886 34.2311 147.03C34.6872 147.175 35.1862 147.204 35.6627 147.113C36.1393 147.023 36.5712 146.818 36.9018 146.524L85.0608 103.799C85.7893 103.154 86.6744 102.639 87.6601 102.286C88.6458 101.933 89.7107 101.751 90.7876 101.75H345.277C348.624 101.747 351.833 100.664 354.2 98.739C356.567 96.8141 357.899 94.2042 357.902 91.4819V16.8464C357.899 14.1241 356.567 11.5143 354.2 9.58933C351.833 7.6644 348.624 6.58162 345.277 6.57854H15.5668Z" fill="#D4E0EE"/>
<path d="M36.7307 38.6151C43.7704 38.6151 49.4772 33.9741 49.4772 28.2491C49.4772 22.524 43.7704 17.883 36.7307 17.883C29.691 17.883 23.9841 22.524 23.9841 28.2491C23.9841 33.9741 29.691 38.6151 36.7307 38.6151Z" fill="#D4E0EE"/>
<path d="M330.406 85.608H30.4379C29.5444 85.6089 28.6596 85.4665 27.8338 85.189C27.0081 84.9116 26.2577 84.5045 25.6256 83.991C24.9935 83.4776 24.492 82.8678 24.1498 82.1966C23.8077 81.5255 23.6316 80.806 23.6316 80.0794C23.6316 79.3528 23.8077 78.6334 24.1498 77.9622C24.492 77.291 24.9935 76.6813 25.6256 76.1678C26.2577 75.6543 27.0081 75.2472 27.8338 74.9698C28.6596 74.6923 29.5444 74.55 30.4379 74.5508H330.406C331.299 74.55 332.184 74.6923 333.01 74.9698C333.835 75.2472 334.586 75.6543 335.218 76.1678C335.85 76.6813 336.352 77.291 336.694 77.9622C337.036 78.6334 337.212 79.3528 337.212 80.0794C337.212 80.806 337.036 81.5255 336.694 82.1966C336.352 82.8678 335.85 83.4776 335.218 83.991C334.586 84.5045 333.835 84.9116 333.01 85.189C332.184 85.4665 331.299 85.6089 330.406 85.608V85.608Z" fill="#D4E0EE"/>
<path d="M232.682 62.1116H30.4379C29.5444 62.1125 28.6596 61.9701 27.8338 61.6926C27.0081 61.4152 26.2577 61.0081 25.6256 60.4946C24.9935 59.9812 24.492 59.3714 24.1498 58.7002C23.8077 58.029 23.6316 57.3096 23.6316 56.583C23.6316 55.8564 23.8077 55.137 24.1498 54.4658C24.492 53.7946 24.9935 53.1848 25.6256 52.6714C26.2577 52.1579 27.0081 51.7508 27.8338 51.4734C28.6596 51.1959 29.5444 51.0536 30.4379 51.0544H232.682C233.576 51.0536 234.461 51.1959 235.286 51.4734C236.112 51.7508 236.863 52.1579 237.495 52.6714C238.127 53.1848 238.628 53.7946 238.97 54.4658C239.313 55.137 239.489 55.8564 239.489 56.583C239.489 57.3096 239.313 58.029 238.97 58.7002C238.628 59.3714 238.127 59.9812 237.495 60.4946C236.863 61.0081 236.112 61.4152 235.286 61.6926C234.461 61.9701 233.576 62.1125 232.682 62.1116V62.1116Z" fill="#D4E0EE"/>
<path d="M46.5966 463.666C46.0505 463.666 45.5093 463.583 45.0006 463.421C44.178 463.164 43.471 462.71 42.9735 462.118C42.476 461.527 42.2115 460.826 42.2152 460.109V422.987C42.2135 421.731 41.5989 420.526 40.5064 419.638C39.4139 418.749 37.9327 418.249 36.3876 418.248H27.0402C23.1782 418.244 19.4756 416.995 16.7447 414.774C14.0138 412.553 12.4777 409.542 12.4734 406.401V331.766C12.4777 328.625 14.0138 325.614 16.7447 323.393C19.4755 321.172 23.1782 319.923 27.0402 319.919H356.75C360.612 319.923 364.314 321.172 367.045 323.393C369.776 325.614 371.312 328.625 371.317 331.766V406.401C371.312 409.542 369.776 412.553 367.045 414.774C364.314 416.995 360.612 418.244 356.75 418.248H102.261C101.453 418.249 100.654 418.386 99.9148 418.65C99.1754 418.915 98.5114 419.301 97.9649 419.785L49.806 462.511C49.3993 462.874 48.9039 463.165 48.3512 463.364C47.7986 463.563 47.201 463.666 46.5966 463.666V463.666ZM27.0402 321.498C23.6928 321.501 20.4836 322.584 18.1166 324.509C15.7496 326.434 14.4182 329.044 14.4144 331.766V406.401C14.4182 409.124 15.7496 411.734 18.1166 413.659C20.4836 415.583 23.6928 416.666 27.0402 416.669H36.3876C38.4473 416.671 40.4219 417.337 41.8784 418.522C43.3348 419.706 44.154 421.312 44.1562 422.987V460.109C44.1563 460.507 44.3041 460.896 44.5804 461.224C44.8566 461.553 45.2485 461.806 45.7045 461.95C46.1605 462.094 46.6595 462.123 47.1361 462.033C47.6127 461.942 48.0446 461.737 48.3752 461.444L96.5341 418.718C97.2627 418.073 98.1478 417.558 99.1335 417.205C100.119 416.853 101.184 416.67 102.261 416.669H356.75C360.097 416.666 363.306 415.583 365.673 413.659C368.04 411.734 369.372 409.124 369.376 406.401V331.766C369.372 329.044 368.04 326.434 365.673 324.509C363.306 322.584 360.097 321.501 356.75 321.498L27.0402 321.498Z" fill="#D4E0EE"/>
<path d="M376.96 305.995C376.356 305.994 375.758 305.891 375.206 305.692C374.653 305.493 374.158 305.203 373.751 304.839L325.592 262.113C325.046 261.629 324.382 261.243 323.642 260.978C322.903 260.714 322.104 260.577 321.296 260.576H66.8073C62.9452 260.573 59.2426 259.323 56.5118 257.103C53.7809 254.882 52.2448 251.871 52.2405 248.73V174.094C52.2448 170.953 53.7809 167.942 56.5118 165.721C59.2427 163.501 62.9452 162.251 66.8073 162.248H396.517C400.379 162.251 404.082 163.501 406.812 165.721C409.543 167.942 411.079 170.953 411.084 174.094V248.73C411.079 251.871 409.543 254.882 406.812 257.103C404.082 259.323 400.379 260.573 396.517 260.576H387.17C385.624 260.578 384.143 261.077 383.051 261.966C381.958 262.854 381.344 264.059 381.342 265.316V302.438C381.346 303.154 381.081 303.855 380.584 304.446C380.086 305.038 379.379 305.492 378.556 305.749C378.048 305.911 377.507 305.994 376.96 305.995V305.995ZM66.8072 163.826C63.4598 163.829 60.2506 164.912 57.8837 166.837C55.5167 168.762 54.1853 171.372 54.1815 174.094V248.73C54.1853 251.452 55.5167 254.062 57.8837 255.987C60.2506 257.912 63.4598 258.995 66.8072 258.998H321.296C322.373 258.999 323.438 259.181 324.424 259.534C325.409 259.886 326.294 260.401 327.023 261.046L375.182 303.772C375.513 304.066 375.944 304.271 376.421 304.361C376.898 304.451 377.397 304.423 377.853 304.278C378.309 304.134 378.7 303.881 378.977 303.553C379.253 303.224 379.401 302.836 379.401 302.438V265.316C379.403 263.641 380.222 262.035 381.679 260.85C383.135 259.666 385.11 258.999 387.17 258.998H396.517C399.864 258.995 403.074 257.912 405.44 255.987C407.807 254.062 409.139 251.452 409.143 248.73V174.094C409.139 171.372 407.807 168.762 405.44 166.837C403.074 164.912 399.864 163.829 396.517 163.826L66.8072 163.826Z" fill="#3F3D56"/>
<path d="M48.2038 353.535C55.2435 353.535 60.9503 348.894 60.9503 343.169C60.9503 337.444 55.2435 332.802 48.2038 332.802C41.1641 332.802 35.4573 337.444 35.4573 343.169C35.4573 348.894 41.1641 353.535 48.2038 353.535Z" fill="#D4E0EE"/>
<path d="M341.879 400.527H41.911C41.0176 400.528 40.1327 400.386 39.307 400.109C38.4813 399.831 37.7309 399.424 37.0987 398.911C36.4666 398.397 35.9651 397.787 35.623 397.116C35.2808 396.445 35.1047 395.726 35.1047 394.999C35.1047 394.272 35.2808 393.553 35.623 392.882C35.9651 392.211 36.4666 391.601 37.0987 391.087C37.7309 390.574 38.4813 390.167 39.307 389.889C40.1327 389.612 41.0176 389.47 41.911 389.47H341.879C343.682 389.47 345.411 390.053 346.686 391.09C347.961 392.126 348.677 393.533 348.677 394.999C348.677 396.465 347.961 397.871 346.686 398.908C345.411 399.945 343.682 400.527 341.879 400.527Z" fill="#D4E0EE"/>
<path d="M244.156 377.031H41.911C41.0176 377.032 40.1327 376.89 39.307 376.612C38.4813 376.335 37.7309 375.928 37.0987 375.414C36.4666 374.901 35.9651 374.291 35.623 373.62C35.2808 372.949 35.1047 372.229 35.1047 371.503C35.1047 370.776 35.2808 370.057 35.623 369.385C35.9651 368.714 36.4666 368.104 37.0987 367.591C37.7309 367.077 38.4813 366.67 39.307 366.393C40.1327 366.115 41.0176 365.973 41.911 365.974H244.156C245.049 365.973 245.934 366.115 246.76 366.393C247.585 366.67 248.336 367.077 248.968 367.591C249.6 368.104 250.101 368.714 250.444 369.385C250.786 370.057 250.962 370.776 250.962 371.503C250.962 372.229 250.786 372.949 250.444 373.62C250.101 374.291 249.6 374.901 248.968 375.414C248.336 375.928 247.585 376.335 246.76 376.612C245.934 376.89 245.049 377.032 244.156 377.031Z" fill="#D4E0EE"/>
<path d="M87.9709 195.172C95.0106 195.172 100.717 190.531 100.717 184.806C100.717 179.081 95.0106 174.44 87.9709 174.44C80.9312 174.44 75.2244 179.081 75.2244 184.806C75.2244 190.531 80.9312 195.172 87.9709 195.172Z" fill="#F25477"/>
<path d="M381.646 242.165H81.678C79.875 242.165 78.1459 241.582 76.871 240.545C75.5961 239.508 74.8799 238.102 74.8799 236.636C74.8799 235.17 75.5961 233.764 76.871 232.727C78.1459 231.69 79.875 231.107 81.678 231.107H381.646C383.449 231.107 385.178 231.69 386.453 232.727C387.728 233.764 388.444 235.17 388.444 236.636C388.444 238.102 387.728 239.508 386.453 240.545C385.178 241.582 383.449 242.165 381.646 242.165V242.165Z" fill="#F09BB9"/>
<path d="M283.923 218.668H81.6783C80.7849 218.669 79.9 218.527 79.0743 218.249C78.2486 217.972 77.4982 217.565 76.8661 217.051C76.2339 216.538 75.7325 215.928 75.3903 215.257C75.0482 214.586 74.8721 213.866 74.8721 213.14C74.8721 212.413 75.0482 211.694 75.3903 211.022C75.7325 210.351 76.2339 209.741 76.8661 209.228C77.4982 208.714 78.2486 208.307 79.0743 208.03C79.9 207.752 80.7849 207.61 81.6783 207.611H283.923C284.816 207.61 285.701 207.752 286.527 208.03C287.353 208.307 288.103 208.714 288.735 209.228C289.367 209.741 289.869 210.351 290.211 211.022C290.553 211.694 290.729 212.413 290.729 213.14C290.729 213.866 290.553 214.586 290.211 215.257C289.869 215.928 289.367 216.538 288.735 217.051C288.103 217.565 287.353 217.972 286.527 218.249C285.701 218.527 284.816 218.669 283.923 218.668Z" fill="#F09BB9"/>
</svg>
