<svg width="972" height="629" viewBox="0 0 972 629" fill="none" xmlns="http://www.w3.org/2000/svg">
<g clip-path="url(#clip0_5_19)">
<path d="M733.457 500.406C730.799 482.498 730.097 464.354 731.363 446.294L733.457 416.406C721.916 439.371 724.524 469.598 733.457 500.406V500.406Z" fill="#CACACA"/>
<path d="M742.457 505.406C741.177 494.72 740.84 483.942 741.449 473.197L742.457 455.406C736.904 469.076 738.159 487.068 742.457 505.406Z" fill="#CACACA"/>
<path d="M782.462 527.408V537.408C782.458 538.203 782.14 538.963 781.579 539.525C781.017 540.087 780.256 540.404 779.462 540.408H774.462C774.33 540.408 774.2 540.433 774.079 540.483C773.957 540.533 773.847 540.607 773.754 540.7C773.661 540.793 773.587 540.903 773.537 541.025C773.487 541.146 773.461 541.277 773.462 541.408V623.408C773.458 624.203 773.14 624.963 772.579 625.525C772.017 626.087 771.256 626.404 770.462 626.408H709.462C708.666 626.408 707.904 626.091 707.341 625.529C706.779 624.966 706.463 624.204 706.462 623.408V541.408C706.461 541.143 706.356 540.889 706.168 540.702C705.981 540.515 705.727 540.409 705.462 540.408H699.462C698.666 540.408 697.904 540.091 697.341 539.529C696.779 538.966 696.463 538.204 696.462 537.408V527.408C696.461 527.014 696.539 526.624 696.689 526.259C696.84 525.895 697.061 525.564 697.339 525.286C697.618 525.007 697.949 524.786 698.313 524.635C698.677 524.485 699.068 524.408 699.462 524.408H779.462C780.257 524.411 781.019 524.727 781.581 525.289C782.143 525.852 782.46 526.613 782.462 527.408Z" fill="#F2F2F2"/>
<path d="M773.552 542.508H706.552V545.508H773.552V542.508Z" fill="#D4E0EE"/>
<path d="M773.462 586.653C751.042 595.931 728.378 596.033 705.462 586.653V565.518C727.523 558.108 751.401 558.108 773.462 565.518V586.653Z" fill="#D4E0EE"/>
<path d="M451.481 250.381C471.582 250.381 487.877 234.086 487.877 213.985C487.877 193.885 471.582 177.59 451.481 177.59C431.38 177.59 415.086 193.885 415.086 213.985C415.086 234.086 431.38 250.381 451.481 250.381Z" fill="#501201"/>
<path d="M461.621 178.591C467.92 178.592 474.111 180.228 479.588 183.337C485.066 186.447 489.643 190.925 492.871 196.334C496.1 201.742 497.87 207.896 498.008 214.193C498.147 220.49 496.649 226.715 493.661 232.26C496.816 228.312 499.114 223.75 500.409 218.865C501.704 213.98 501.967 208.878 501.181 203.886C500.396 198.893 498.578 194.119 495.846 189.868C493.113 185.616 489.524 181.981 485.309 179.193C481.094 176.405 476.343 174.525 471.362 173.675C466.38 172.824 461.275 173.02 456.374 174.251C451.472 175.482 446.88 177.721 442.891 180.825C438.903 183.928 435.604 187.829 433.206 192.278C436.608 188.006 440.93 184.558 445.85 182.188C450.77 179.818 456.161 178.589 461.621 178.591V178.591Z" fill="#501201"/>
<path d="M383.47 213.908C442.517 213.908 490.383 166.042 490.383 106.996C490.383 47.9496 442.517 0.0832825 383.47 0.0832825C324.424 0.0832825 276.558 47.9496 276.558 106.996C276.558 166.042 324.424 213.908 383.47 213.908Z" fill="#501201"/>
<path d="M299.562 40.6617C317.984 19.9437 343.734 7.19351 371.379 5.102C399.024 3.01048 426.399 11.7413 447.729 29.4517C446.854 28.6207 445.99 27.7829 445.081 26.9753C423.887 8.15058 396.085 -1.4867 367.787 0.182472C339.489 1.85164 313.013 14.6906 294.179 35.8764C275.345 57.0622 265.696 84.8605 267.353 113.159C269.01 141.458 281.837 167.94 303.015 186.783C303.923 187.59 304.857 188.351 305.784 189.122C285.698 170.014 273.82 143.849 272.659 116.15C271.498 88.4505 281.144 61.3836 299.562 40.6617Z" fill="#501201"/>
<path d="M382.564 213.002C420.594 213.002 451.423 182.173 451.423 144.143C451.423 106.114 420.594 75.2844 382.564 75.2844C344.535 75.2844 313.706 106.114 313.706 144.143C313.706 182.173 344.535 213.002 382.564 213.002Z" fill="#FFB8B8"/>
<path d="M419.595 217L345.907 220.313C345.907 220.313 352.057 258.421 312.191 262.045C272.326 265.669 236.084 254.797 221.587 281.978C207.091 309.159 213.339 405.944 213.339 405.944C213.339 405.944 240.52 503.796 262.265 518.293C284.01 532.789 474.278 512.856 474.278 512.856L553.907 412.313L551.21 334.773C549.801 294.282 512.833 263.882 473.016 271.375C472.234 271.522 477.793 270.579 477 270.749C477 270.749 461.907 265.313 437.907 253.313C423.23 245.974 419.595 217 419.595 217Z" fill="#F09BB9"/>
<path d="M313 153C320.18 153 326 145.613 326 136.5C326 127.387 320.18 120 313 120C305.82 120 300 127.387 300 136.5C300 145.613 305.82 153 313 153Z" fill="#FFB8B8"/>
<path d="M457 151C462.523 151 467 144.06 467 135.5C467 126.94 462.523 120 457 120C451.477 120 447 126.94 447 135.5C447 144.06 451.477 151 457 151Z" fill="#FFB8B8"/>
<path d="M603.152 608.446V614.516C603.155 616.182 602.846 617.834 602.242 619.386C601.973 620.078 601.649 620.747 601.272 621.386C600.08 623.387 598.389 625.043 596.364 626.193C594.339 627.343 592.05 627.947 589.722 627.946H143.172C140.843 627.947 138.554 627.343 136.529 626.193C134.505 625.043 132.814 623.387 131.622 621.386C131.245 620.747 130.92 620.078 130.652 619.386C130.047 617.834 129.738 616.182 129.742 614.516V608.446C129.741 606.683 130.088 604.937 130.762 603.308C131.437 601.679 132.425 600.198 133.672 598.951C134.918 597.704 136.398 596.715 138.027 596.04C139.656 595.364 141.401 595.017 143.165 595.016H168.912V592.186C168.912 592.113 168.926 592.04 168.954 591.972C168.982 591.904 169.023 591.843 169.075 591.791C169.127 591.739 169.188 591.697 169.256 591.669C169.324 591.641 169.396 591.626 169.47 591.626H182.902C183.05 591.626 183.192 591.685 183.297 591.789C183.402 591.894 183.461 592.036 183.462 592.184V595.016H191.852V592.186C191.852 592.113 191.866 592.04 191.894 591.972C191.922 591.904 191.963 591.843 192.015 591.791C192.067 591.739 192.128 591.697 192.196 591.669C192.264 591.641 192.336 591.626 192.41 591.626H205.842C205.99 591.626 206.132 591.685 206.237 591.789C206.342 591.894 206.401 592.036 206.402 592.184V595.016H214.802V592.186C214.802 592.113 214.816 592.04 214.844 591.972C214.872 591.904 214.913 591.843 214.965 591.791C215.017 591.739 215.078 591.697 215.146 591.669C215.214 591.641 215.286 591.626 215.36 591.626H228.792C228.94 591.626 229.082 591.685 229.187 591.789C229.292 591.894 229.351 592.036 229.352 592.184V595.016H237.742V592.186C237.742 592.113 237.756 592.04 237.784 591.972C237.812 591.904 237.853 591.843 237.905 591.791C237.957 591.739 238.018 591.697 238.086 591.669C238.154 591.641 238.226 591.626 238.3 591.626H251.732C251.88 591.626 252.022 591.685 252.127 591.789C252.232 591.894 252.291 592.036 252.292 592.184V595.016H260.682V592.186C260.682 592.113 260.696 592.04 260.724 591.972C260.752 591.904 260.793 591.843 260.845 591.791C260.897 591.739 260.958 591.697 261.026 591.669C261.094 591.641 261.166 591.626 261.24 591.626H274.672C274.82 591.626 274.962 591.685 275.067 591.789C275.172 591.894 275.231 592.036 275.232 592.184V595.016H283.632V592.186C283.632 592.113 283.646 592.04 283.674 591.972C283.702 591.904 283.743 591.843 283.795 591.791C283.847 591.739 283.908 591.697 283.976 591.669C284.044 591.641 284.116 591.626 284.19 591.626H297.622C297.77 591.626 297.912 591.685 298.017 591.789C298.122 591.894 298.181 592.036 298.182 592.184V595.016H306.572V592.186C306.572 592.113 306.586 592.04 306.614 591.972C306.642 591.904 306.683 591.843 306.735 591.791C306.787 591.739 306.848 591.697 306.916 591.669C306.984 591.641 307.056 591.626 307.13 591.626H412.332C412.405 591.626 412.478 591.64 412.546 591.668C412.614 591.696 412.675 591.738 412.727 591.789C412.779 591.841 412.821 591.903 412.849 591.971C412.877 592.038 412.892 592.111 412.892 592.184V595.016H421.292V592.186C421.292 592.113 421.306 592.04 421.334 591.972C421.362 591.904 421.403 591.843 421.455 591.791C421.507 591.739 421.568 591.697 421.636 591.669C421.704 591.641 421.776 591.626 421.85 591.626H435.282C435.43 591.628 435.571 591.687 435.676 591.792C435.781 591.897 435.84 592.038 435.842 592.186V595.016H444.232V592.186C444.232 592.113 444.246 592.04 444.274 591.972C444.302 591.904 444.343 591.843 444.395 591.791C444.447 591.739 444.508 591.697 444.576 591.669C444.644 591.641 444.716 591.626 444.79 591.626H458.222C458.295 591.626 458.368 591.641 458.436 591.669C458.504 591.697 458.565 591.738 458.617 591.789C458.669 591.841 458.711 591.903 458.739 591.971C458.767 592.038 458.782 592.111 458.782 592.184V595.016H467.172V592.186C467.172 592.113 467.186 592.04 467.214 591.972C467.242 591.904 467.283 591.843 467.335 591.791C467.387 591.739 467.448 591.697 467.516 591.669C467.584 591.641 467.656 591.626 467.73 591.626H481.162C481.235 591.626 481.308 591.641 481.376 591.669C481.444 591.697 481.505 591.738 481.557 591.789C481.609 591.841 481.651 591.903 481.679 591.971C481.707 592.038 481.722 592.111 481.722 592.185V595.016H490.122V592.186C490.122 592.113 490.136 592.04 490.164 591.972C490.192 591.904 490.233 591.843 490.285 591.791C490.337 591.739 490.398 591.697 490.466 591.669C490.534 591.641 490.606 591.626 490.68 591.626H504.112C504.259 591.628 504.399 591.688 504.502 591.793C504.605 591.898 504.662 592.039 504.662 592.186V595.016H513.062V592.186C513.062 592.113 513.076 592.04 513.104 591.972C513.132 591.904 513.173 591.843 513.225 591.791C513.277 591.739 513.338 591.697 513.406 591.669C513.474 591.641 513.546 591.626 513.62 591.626H527.052C527.125 591.626 527.198 591.641 527.266 591.669C527.334 591.697 527.395 591.738 527.447 591.789C527.499 591.841 527.541 591.903 527.569 591.971C527.597 592.038 527.612 592.111 527.612 592.185V595.016H536.002V592.186C536.002 592.113 536.016 592.04 536.044 591.972C536.072 591.904 536.113 591.843 536.165 591.791C536.217 591.739 536.278 591.697 536.346 591.669C536.414 591.641 536.486 591.626 536.56 591.626H549.992C550.065 591.626 550.138 591.641 550.206 591.669C550.274 591.697 550.335 591.738 550.387 591.789C550.439 591.841 550.481 591.903 550.509 591.971C550.537 592.038 550.552 592.111 550.552 592.185V595.016H589.722C593.283 595.015 596.698 596.429 599.217 598.946C601.735 601.464 603.151 604.878 603.152 608.439L603.152 608.446Z" fill="#3F3D56"/>
<path d="M971.052 626.381H0V628.381H971.052V626.381Z" fill="#3F3D56"/>
<path d="M567.194 352.812H158.151C156.672 352.812 155.208 353.103 153.842 353.669C152.476 354.235 151.235 355.064 150.19 356.11C149.144 357.155 148.315 358.396 147.749 359.762C147.183 361.128 146.892 362.592 146.892 364.071V591.982C146.892 594.968 148.078 597.832 150.19 599.943C152.301 602.055 155.165 603.241 158.151 603.241H567.194C570.18 603.241 573.044 602.055 575.155 599.943C577.267 597.832 578.453 594.968 578.453 591.982V364.071C578.453 361.085 577.267 358.221 575.155 356.11C573.044 353.998 570.18 352.812 567.194 352.812Z" fill="#3F3D56"/>
<path d="M363 457.381C376.807 457.381 388 446.189 388 432.381C388 418.574 376.807 407.381 363 407.381C349.193 407.381 338 418.574 338 432.381C338 446.189 349.193 457.381 363 457.381Z" fill="#D4E0EE"/>
<path d="M517.109 267L615.533 174.455H662V173H614.882L614.653 173.216L516 265.977L517.109 267Z" fill="#3F3D56"/>
<path d="M330 71L313 113L341 101.5L360.5 113L434.013 139.859L449.597 152L479.5 139.859L449.597 71H330Z" fill="#501201"/>
<path d="M743.493 151.034H706.446V154.121H743.493V151.034Z" fill="#F25477"/>
<path d="M792.889 151.034H755.842V154.121H792.889V151.034Z" fill="#F25477"/>
<path d="M864.667 179.591H827.62V182.678H864.667V179.591Z" fill="#F25477"/>
<path d="M914.834 179.591H877.787V182.678H914.834V179.591Z" fill="#F25477"/>
<path d="M914.834 151.034H806.009V154.121H914.834V151.034Z" fill="#F25477"/>
<path d="M815.271 179.591H706.446V182.678H815.271V179.591Z" fill="#F25477"/>
<path d="M815.271 208.148H706.446V211.235H815.271V208.148Z" fill="#F25477"/>
<path d="M914.834 208.148H839.197V211.235H914.834V208.148Z" fill="#F25477"/>
<path d="M696.034 164.067L683 151.034L696.034 138L698.641 140.608L688.215 151.034L698.641 161.459L696.034 164.067Z" fill="#F25477"/>
<path d="M949.945 224.268L947.337 221.661L957.763 211.234L947.337 200.808L949.945 198.201L962.978 211.234L949.945 224.268Z" fill="#F25477"/>
<path d="M936.224 197.58L928.505 223.049L932.035 224.118L939.753 198.649L936.224 197.58Z" fill="#F25477"/>
</g>
<defs>
<clipPath id="clip0_5_19">
<rect width="971.052" height="628.381" fill="white"/>
</clipPath>
</defs>
</svg>
