<svg width="2000" height="2082" viewBox="0 0 2000 2082" fill="none" xmlns="http://www.w3.org/2000/svg">
<path d="M182.095 1873.79L0 0H2000L1817.68 1873.93L999.513 2082L182.095 1873.79Z" fill="#E34E26"/>
<path d="M1000 153.161V1922.84L1661.59 1754.6L1817.46 153.161H1000Z" fill="#EF662A"/>
<path d="M372.569 383L440.095 1077.98H1308.39L1279.25 1376.06L999.677 1445.4L720.636 1376.16L701.98 1184.76H450.518L486.476 1553.73L999.617 1684.47L1513.41 1553.73L1582.29 848.186H669.219L646.293 612.839H1604.23H1604.99L1627.43 383H372.569Z" fill="white"/>
<path d="M1000 383H372.569L440.095 1077.98H1000V848.186H669.219L646.293 612.839H1000V383Z" fill="#EBEBEB"/>
<path d="M1000 1445.3L999.676 1445.4L720.636 1376.16L701.98 1184.76H450.518L486.476 1553.73L999.617 1684.47L1000 1684.37V1445.3Z" fill="#EBEBEB"/>
</svg>
