<svg width="248" height="156" viewBox="0 0 248 156" fill="none" xmlns="http://www.w3.org/2000/svg">
<path d="M52.3 1.89981C52 2.9997 51 3.99961 49.9 4.29958C48.9 4.59955 48 5.29949 48 5.99942C48 6.69936 48.9 7.39929 49.9 7.69926C51 7.99923 52 8.99914 52.3 10.099C52.6 11.0989 53.3 11.9989 54 11.9989C54.7 11.9989 55.4 11.0989 55.7 10.099C56 8.99914 57 7.99923 58.1 7.69926C59.1 7.39929 60 6.69936 60 5.99942C60 5.29949 59.1 4.59955 58.1 4.29958C57 3.99961 56 2.9997 55.7 1.89981C55.4 0.899902 54.7 -1.26958e-05 54 -1.26958e-05C53.3 -1.26958e-05 52.6 0.899902 52.3 1.89981ZM55 5.99942C55 6.49937 54.5 6.99933 53.9 6.99933C53.4 6.99933 53.2 6.49937 53.5 5.99942C53.8 5.39948 54.3 4.99952 54.6 4.99952C54.8 4.99952 55 5.39948 55 5.99942Z" fill="#1A1C54"/>
<path d="M20.4 13.2987C19.5 15.7985 20.4 19.4982 22 19.4982C23 19.4982 23.5 18.4982 23.5 16.0985C23.5 12.4988 21.4 10.699 20.4 13.2987Z" fill="#1A1C54"/>
<path d="M10.4 17.0984C10.1 17.6983 11.1 19.5982 12.9 21.298C15.3 23.7978 16.2 24.1977 17.2 23.1978C18.1 22.2979 17.8 21.398 15.5 18.9982C12.4 15.6985 11.5 15.3986 10.4 17.0984Z" fill="#1A1C54"/>
<path d="M25.1 25.3976C20.1 28.1974 20.1 28.0974 20 79.6925V127.988H12.5C3.80004 127.988 3.00004 128.788 4.90004 134.887C6.40004 140.187 9.60004 143.886 14.4 146.086C18.3 147.886 22.7 147.986 96 147.986C169.3 147.986 173.7 147.886 177.6 146.086C182.4 143.886 185.6 140.187 187.1 134.887C189 128.788 188.2 127.988 179.5 127.988H172V79.9925C172 27.7974 172 27.6974 166.5 25.1976C162.5 23.3978 28.4 23.5978 25.1 25.3976ZM166.2 29.6972C167.9 31.1971 168 34.0968 168 79.6925V127.988H138.5H109L108 130.488C107.1 132.987 106.9 132.987 96 132.987C85.1 132.987 84.9 132.987 84 130.488L83 127.988H53.5H24V79.5925V31.0971L26.2 29.5972C28.2 28.1974 36.5 27.9974 96.4 27.9974C158.2 27.9974 164.5 28.0974 166.2 29.6972ZM82.2 134.487C84.1 136.887 84.5 136.987 96 136.987C107.5 136.987 107.9 136.887 109.8 134.487L111.8 131.988H147.8H183.9L182.9 134.887C182.4 136.387 180.5 138.987 178.9 140.587L175.9 143.486H96H16.1L13.1 140.587C11.5 138.987 9.60004 136.387 9.10004 134.887L8.10004 131.988H44.2H80.2L82.2 134.487Z" fill="#1A1C54"/>
<path d="M32.5 37.1965C32.2 37.8964 32.1 56.6947 32.2 78.9926L32.5 119.489H96H159.5V77.9927V36.4966L96.2 36.1966C46.1 35.9966 32.8 36.1966 32.5 37.1965ZM156 77.9927V115.989H96H36V77.9927V39.9962H96H156V77.9927Z" fill="#1A1C54"/>
<path d="M8.49999 28.9973C7.39999 30.7971 9.49999 32.197 12.6 31.797C16.6 31.397 16.4 28.5973 12.3 28.1973C10.6 27.9974 8.89999 28.3973 8.49999 28.9973Z" fill="#1A1C54"/>
<path d="M204.3 31.597C204 32.4969 204.3 33.5968 205 33.9968C206.1 34.6967 206.1 35.0967 205 36.4966C203.1 38.7964 205.2 40.8962 207.6 38.8963C208.9 37.7964 209.4 37.7964 209.7 38.6964C210.3 40.2962 212.6 40.3962 213.5 38.9963C213.9 38.3964 213.6 37.2965 213 36.4966C212 35.2967 212 34.6967 213 33.4969C214.9 31.1971 212.7 29.0973 210.5 30.9971C209.3 31.997 208.6 31.997 207.8 31.1971C206.2 29.5972 205 29.6972 204.3 31.597Z" fill="#1A1C54"/>
<path d="M2 49.9953C0.9 51.0952 0 52.895 0 53.9949C0 56.5947 3.4 59.9944 6 59.9944C8.6 59.9944 12 56.5947 12 53.9949C12 51.3952 8.6 47.9955 6 47.9955C4.9 47.9955 3.1 48.8954 2 49.9953ZM7.6 53.095C8.6 54.7948 6.3 56.6947 4.9 55.2948C3.7 54.0949 4.5 51.9951 6 51.9951C6.5 51.9951 7.2 52.4951 7.6 53.095Z" fill="#1A1C54"/>
<path d="M188.3 61.8942C188 62.9941 187 63.994 185.9 64.294C184.9 64.5939 184 65.2939 184 65.9938C184 66.6937 184.9 67.3937 185.9 67.6936C187 67.9936 188 68.9935 188.3 70.0934C188.6 71.0933 189.3 71.9932 190 71.9932C190.7 71.9932 191.4 71.0933 191.7 70.0934C192 68.9935 193 67.9936 194.1 67.6936C195.1 67.3937 196 66.6937 196 65.9938C196 65.2939 195.1 64.5939 194.1 64.294C193 63.994 192 62.9941 191.7 61.8942C191.4 60.8943 190.7 59.9944 190 59.9944C189.3 59.9944 188.6 60.8943 188.3 61.8942ZM191 65.9938C191 66.4937 190.5 66.9937 189.9 66.9937C189.4 66.9937 189.2 66.4937 189.5 65.9938C189.8 65.3938 190.3 64.9939 190.6 64.9939C190.8 64.9939 191 65.3938 191 65.9938Z" fill="#1A1C54"/>
<path d="M232.4 73.0931C231.4 74.793 233.7 76.6928 235.1 75.2929C236.3 74.093 235.5 71.9932 234 71.9932C233.5 71.9932 232.8 72.4932 232.4 73.0931Z" fill="#1A1C54"/>
<path d="M196.5 84.992C195.4 86.7918 197 87.9917 200.6 87.9917C203.3 87.9917 204 87.5918 204 85.9919C204 84.3921 203.3 83.9921 200.6 83.9921C198.7 83.9921 196.8 84.3921 196.5 84.992Z" fill="#1A1C54"/>
<path d="M208.5 85.092C207.6 86.3919 208.8 87.6917 211.5 88.1917C215.4 88.8916 213.7 91.4914 209 91.9913C205.9 92.2913 204.5 92.9912 204.5 93.9911C204.5 95.091 206 95.591 210 95.991C214.1 96.3909 215.6 96.8909 215.8 98.1907C216 99.4906 215.3 99.8906 212.3 100.191C209.7 100.391 208.5 100.99 208.5 101.99C208.5 103.19 210.2 103.59 216.3 103.79C222.4 103.99 224 103.79 224 102.69C224 101.89 223 100.591 221.8 99.7906C218.1 97.2908 220.5 95.991 228.6 95.991C235.2 95.991 236.1 95.791 235.8 94.2911C235.6 93.3912 234.4 92.2913 233 91.9913C228.8 90.9914 230 88.5916 235 87.9917C238.1 87.6917 239.5 86.9918 239.5 85.9919C239.5 84.692 237 84.492 224.3 84.1921C214 83.9921 208.9 84.2921 208.5 85.092ZM225.8 90.1915C226.1 91.5914 225.4 91.9913 222.6 91.9913C219 91.9913 217.4 90.7914 218.5 88.8916C219.6 87.1918 225.4 88.2917 225.8 90.1915Z" fill="#1A1C54"/>
<path d="M228.5 100.99C227.7 102.39 228.8 103.99 230.6 103.99C231.4 103.99 232 103.09 232 101.99C232 99.8906 229.6 99.1907 228.5 100.99Z" fill="#1A1C54"/>
<path d="M4.49999 106.99C4.09999 107.59 4.39999 108.69 4.99999 109.49C5.99999 110.69 5.99999 111.29 4.99999 112.489C3.09999 114.789 5.29999 116.889 7.89999 115.289C9.29999 114.389 9.99999 114.389 10.9 115.289C11.7 116.089 12.3 116.089 13.2 115.189C14.1 114.289 14.1 113.689 13.3 112.889C12.4 111.989 12.4 111.29 13.3 109.89C14.9 107.29 12.8 105.09 10.5 106.99C9.29999 107.99 8.59999 107.99 7.79999 107.19C6.29999 105.69 5.29999 105.69 4.49999 106.99Z" fill="#1A1C54"/>
<path d="M196.7 108.59C196.3 108.99 196 118.689 196 130.188C196 157.485 194.8 155.985 216 155.985C230.7 155.985 231.2 155.885 233.5 153.486C235.2 151.886 236 149.986 236 147.486C236 144.186 236.2 143.986 239.5 143.986C242 143.986 243.9 143.186 245.5 141.487C247.8 139.287 248 138.287 248 129.988C248 121.689 247.8 120.689 245.5 118.489C243.9 116.789 242 115.989 239.6 115.989C236.3 115.989 236.1 115.789 235.8 112.189L235.5 108.49L216.4 108.19C206 108.09 197.1 108.29 196.7 108.59ZM232 130.788C232 144.086 231.6 149.986 230.8 150.786C229.1 152.486 202.9 152.486 201.2 150.786C200.4 149.986 200 144.086 200 130.788V111.989H216H232V130.788ZM242.8 121.189C243.5 121.889 244 125.388 244 129.988C244 138.387 243.1 139.987 238.8 139.987H236V129.988V119.989H238.8C240.3 119.989 242.1 120.489 242.8 121.189Z" fill="#1A1C54"/>
</svg>
