<?xml version="1.0" standalone="no"?>
<!DOCTYPE svg PUBLIC "-//W3C//DTD SVG 20010904//EN"
 "http://www.w3.org/TR/2001/REC-SVG-20010904/DTD/svg10.dtd">
<svg version="1.0" xmlns="http://www.w3.org/2000/svg"
 width="256.000000pt" height="256.000000pt" viewBox="0 0 256.000000 256.000000"
 preserveAspectRatio="xMidYMid meet">
<metadata>
Created by potrace 1.10, written by Peter Selinger 2001-2011
</metadata>
<g transform="translate(0.000000,256.000000) scale(0.100000,-0.100000)"
fill="#1a1c54" stroke="none">
<path d="M563 2061 c-3 -11 -13 -21 -24 -24 -10 -3 -19 -10 -19 -17 0 -7 9
-14 19 -17 11 -3 21 -13 24 -24 3 -10 10 -19 17 -19 7 0 14 9 17 19 3 11 13
21 24 24 10 3 19 10 19 17 0 7 -9 14 -19 17 -11 3 -21 13 -24 24 -3 10 -10 19
-17 19 -7 0 -14 -9 -17 -19z m27 -41 c0 -5 -5 -10 -11 -10 -5 0 -7 5 -4 10 3
6 8 10 11 10 2 0 4 -4 4 -10z"/>
<path d="M244 1947 c-9 -25 0 -62 16 -62 10 0 15 10 15 34 0 36 -21 54 -31 28z"/>
<path d="M144 1909 c-3 -6 7 -25 25 -42 24 -25 33 -29 43 -19 9 9 6 18 -17 42
-31 33 -40 36 -51 19z"/>
<path d="M291 1826 c-50 -28 -50 -27 -51 -543 l0 -483 -75 0 c-87 0 -95 -8
-76 -69 15 -53 47 -90 95 -112 39 -18 83 -19 816 -19 733 0 777 1 816 19 48
22 80 59 95 112 19 61 11 69 -76 69 l-75 0 0 480 c0 522 0 523 -55 548 -40 18
-1381 16 -1414 -2z m1411 -43 c17 -15 18 -44 18 -500 l0 -483 -295 0 -295 0
-10 -25 c-9 -25 -11 -25 -120 -25 -109 0 -111 0 -120 25 l-10 25 -295 0 -295
0 0 484 0 485 22 15 c20 14 103 16 702 16 618 0 681 -1 698 -17z m-840 -1048
c19 -24 23 -25 138 -25 115 0 119 1 138 25 l20 25 360 0 361 0 -10 -29 c-5
-15 -24 -41 -40 -57 l-30 -29 -799 0 -799 0 -30 29 c-16 16 -35 42 -40 57
l-10 29 361 0 360 0 20 -25z"/>
<path d="M365 1708 c-3 -7 -4 -195 -3 -418 l3 -405 635 0 635 0 0 415 0 415
-633 3 c-501 2 -634 0 -637 -10z m1235 -408 l0 -380 -600 0 -600 0 0 380 0
380 600 0 600 0 0 -380z"/>
<path d="M125 1790 c-11 -18 10 -32 41 -28 40 4 38 32 -3 36 -17 2 -34 -2 -38
-8z"/>
<path d="M2083 1764 c-3 -9 0 -20 7 -24 11 -7 11 -11 0 -25 -19 -23 2 -44 26
-24 13 11 18 11 21 2 6 -16 29 -17 38 -3 4 6 1 17 -5 25 -10 12 -10 18 0 30
19 23 -3 44 -25 25 -12 -10 -19 -10 -27 -2 -16 16 -28 15 -35 -4z"/>
<path d="M60 1580 c-11 -11 -20 -29 -20 -40 0 -26 34 -60 60 -60 26 0 60 34
60 60 0 26 -34 60 -60 60 -11 0 -29 -9 -40 -20z m56 -31 c10 -17 -13 -36 -27
-22 -12 12 -4 33 11 33 5 0 12 -5 16 -11z"/>
<path d="M1923 1461 c-3 -11 -13 -21 -24 -24 -10 -3 -19 -10 -19 -17 0 -7 9
-14 19 -17 11 -3 21 -13 24 -24 3 -10 10 -19 17 -19 7 0 14 9 17 19 3 11 13
21 24 24 10 3 19 10 19 17 0 7 -9 14 -19 17 -11 3 -21 13 -24 24 -3 10 -10 19
-17 19 -7 0 -14 -9 -17 -19z m27 -41 c0 -5 -5 -10 -11 -10 -5 0 -7 5 -4 10 3
6 8 10 11 10 2 0 4 -4 4 -10z"/>
<path d="M2364 1349 c-10 -17 13 -36 27 -22 12 12 4 33 -11 33 -5 0 -12 -5
-16 -11z"/>
<path d="M2005 1230 c-11 -18 5 -30 41 -30 27 0 34 4 34 20 0 16 -7 20 -34 20
-19 0 -38 -4 -41 -10z"/>
<path d="M2125 1229 c-9 -13 3 -26 30 -31 39 -7 22 -33 -25 -38 -31 -3 -45
-10 -45 -20 0 -11 15 -16 55 -20 41 -4 56 -9 58 -22 2 -13 -5 -17 -35 -20 -26
-2 -38 -8 -38 -18 0 -12 17 -16 78 -18 61 -2 77 0 77 11 0 8 -10 21 -22 29
-37 25 -13 38 68 38 66 0 75 2 72 17 -2 9 -14 20 -28 23 -42 10 -30 34 20 40
31 3 45 10 45 20 0 13 -25 15 -152 18 -103 2 -154 -1 -158 -9z m173 -51 c3
-14 -4 -18 -32 -18 -36 0 -52 12 -41 31 11 17 69 6 73 -13z"/>
<path d="M2325 1070 c-8 -14 3 -30 21 -30 8 0 14 9 14 20 0 21 -24 28 -35 10z"/>
<path d="M85 1010 c-4 -6 -1 -17 5 -25 10 -12 10 -18 0 -30 -19 -23 3 -44 29
-28 14 9 21 9 30 0 8 -8 14 -8 23 1 9 9 9 15 1 23 -9 9 -9 16 0 30 16 26 -5
48 -28 29 -12 -10 -19 -10 -27 -2 -15 15 -25 15 -33 2z"/>
<path d="M2007 994 c-4 -4 -7 -101 -7 -216 0 -273 -12 -258 200 -258 147 0
152 1 175 25 17 16 25 35 25 60 0 33 2 35 35 35 25 0 44 8 60 25 23 22 25 32
25 115 0 83 -2 93 -25 115 -16 17 -35 25 -59 25 -33 0 -35 2 -38 38 l-3 37
-191 3 c-104 1 -193 -1 -197 -4z m353 -222 c0 -133 -4 -192 -12 -200 -17 -17
-279 -17 -296 0 -8 8 -12 67 -12 200 l0 188 160 0 160 0 0 -188z m108 96 c7
-7 12 -42 12 -88 0 -84 -9 -100 -52 -100 l-28 0 0 100 0 100 28 0 c15 0 33 -5
40 -12z"/>
</g>
</svg>
